# xmcd
#
# Track frame offsets: 
#        187
#        20470
#        45042
#        65292
#
# Disc length: 1196 seconds
#
# Revision: 0
# Processed by: cddbd v1.5.1PL0 Copyright (c) Steve Scherf et al.
# Submitted via: ExactAudioCopy v0.95a5
#
DISCID=2204aa04
DTITLE=Gears - Kuchibiru
DYEAR=1993
DGENRE=JPop
TTITLE0=Kuchibiru
TTITLE1=Mellow Ga Hoshii
TTITLE2=Kuchibiru (Karaoke)
TTITLE3=Mellow Ga Hoshii (Karaoke)
EXTD=
EXTT0=
EXTT1=
EXTT2=
EXTT3=
PLAYORDER=
